<svg width="35" height="40" viewBox="0 0 35 40" fill="none" xmlns="http://www.w3.org/2000/svg">
<path d="M21.7904 2H12.9946C11.3754 2 10.0627 3.2568 10.0627 4.80714V6.21071C10.0627 7.76104 11.3754 9.01786 12.9946 9.01786H21.7904C23.4096 9.01786 24.7223 7.76104 24.7223 6.21071V4.80714C24.7223 3.2568 23.4096 2 21.7904 2Z" stroke="white" stroke-opacity="0.87" stroke-width="3" stroke-linecap="round" stroke-linejoin="round"/>
<path d="M25.4552 4.80716H29.8531C30.6306 4.80716 31.3765 5.10292 31.9262 5.62934C32.476 6.15579 32.785 6.86979 32.785 7.6143V35.6857C32.785 36.4302 32.476 37.1443 31.9262 37.6707C31.3765 38.197 30.6306 38.4929 29.8531 38.4929H4.9319C4.15431 38.4929 3.40858 38.197 2.85873 37.6707C2.30891 37.1443 2 36.4302 2 35.6857V7.6143C2 6.86979 2.30891 6.15579 2.85873 5.62934C3.40858 5.10292 4.15431 4.80716 4.9319 4.80716H9.32976" stroke="white" stroke-opacity="0.87" stroke-width="3" stroke-linecap="round" stroke-linejoin="round"/>
</svg>
