<svg width="35" height="35" viewBox="0 0 35 35" fill="none" xmlns="http://www.w3.org/2000/svg">
<path d="M23.825 5.05519V2.83999C23.825 2.25779 23.3422 1.77499 22.76 1.77499C22.1778 1.77499 21.695 2.25779 21.695 2.83999V4.96999H12.465V2.83999C12.465 2.25779 11.9822 1.77499 11.4 1.77499C10.8178 1.77499 10.335 2.25779 10.335 2.83999V5.05519C6.50096 5.41019 4.64076 7.69639 4.35676 11.0902C4.32836 11.502 4.66916 11.8428 5.06676 11.8428H29.0932C29.505 11.8428 29.8458 11.4878 29.8032 11.0902C29.5192 7.69639 27.659 5.41019 23.825 5.05519Z" fill="white" fill-opacity="0.87"/>
<path d="M28.44 13.9728H5.71999C4.93899 13.9728 4.29999 14.6118 4.29999 15.3928V24.14C4.29999 28.4 6.42999 31.24 11.4 31.24H22.76C27.73 31.24 29.86 28.4 29.86 24.14V15.3928C29.86 14.6118 29.221 13.9728 28.44 13.9728ZM13.1182 25.8582C13.0472 25.915 12.9762 25.986 12.9052 26.0286C12.82 26.0854 12.7348 26.128 12.6496 26.1564C12.5644 26.199 12.4792 26.2274 12.394 26.2416C12.2946 26.2558 12.2094 26.27 12.11 26.27C11.9254 26.27 11.7408 26.2274 11.5704 26.1564C11.3858 26.0854 11.2438 25.986 11.1018 25.8582C10.8462 25.5884 10.69 25.2192 10.69 24.85C10.69 24.4808 10.8462 24.1116 11.1018 23.8418C11.2438 23.714 11.3858 23.6146 11.5704 23.5436C11.826 23.43 12.11 23.4016 12.394 23.4584C12.4792 23.4726 12.5644 23.501 12.6496 23.5436C12.7348 23.572 12.82 23.6146 12.9052 23.6714C12.9762 23.7282 13.0472 23.785 13.1182 23.8418C13.3738 24.1116 13.53 24.4808 13.53 24.85C13.53 25.2192 13.3738 25.5884 13.1182 25.8582ZM13.1182 20.8882C12.8484 21.1438 12.4792 21.3 12.11 21.3C11.7408 21.3 11.3716 21.1438 11.1018 20.8882C10.8462 20.6184 10.69 20.2492 10.69 19.88C10.69 19.5108 10.8462 19.1416 11.1018 18.8718C11.4994 18.4742 12.1242 18.3464 12.6496 18.5736C12.8342 18.6446 12.9904 18.744 13.1182 18.8718C13.3738 19.1416 13.53 19.5108 13.53 19.88C13.53 20.2492 13.3738 20.6184 13.1182 20.8882ZM18.0882 25.8582C17.8184 26.1138 17.4492 26.27 17.08 26.27C16.7108 26.27 16.3416 26.1138 16.0718 25.8582C15.8162 25.5884 15.66 25.2192 15.66 24.85C15.66 24.4808 15.8162 24.1116 16.0718 23.8418C16.5972 23.3164 17.5628 23.3164 18.0882 23.8418C18.3438 24.1116 18.5 24.4808 18.5 24.85C18.5 25.2192 18.3438 25.5884 18.0882 25.8582ZM18.0882 20.8882C18.0172 20.945 17.9462 21.0018 17.8752 21.0586C17.79 21.1154 17.7048 21.158 17.6196 21.1864C17.5344 21.229 17.4492 21.2574 17.364 21.2716C17.2646 21.2858 17.1794 21.3 17.08 21.3C16.7108 21.3 16.3416 21.1438 16.0718 20.8882C15.8162 20.6184 15.66 20.2492 15.66 19.88C15.66 19.5108 15.8162 19.1416 16.0718 18.8718C16.1996 18.744 16.3558 18.6446 16.5404 18.5736C17.0658 18.3464 17.6906 18.4742 18.0882 18.8718C18.3438 19.1416 18.5 19.5108 18.5 19.88C18.5 20.2492 18.3438 20.6184 18.0882 20.8882ZM23.0582 25.8582C22.7884 26.1138 22.4192 26.27 22.05 26.27C21.6808 26.27 21.3116 26.1138 21.0418 25.8582C20.7862 25.5884 20.63 25.2192 20.63 24.85C20.63 24.4808 20.7862 24.1116 21.0418 23.8418C21.5672 23.3164 22.5328 23.3164 23.0582 23.8418C23.3138 24.1116 23.47 24.4808 23.47 24.85C23.47 25.2192 23.3138 25.5884 23.0582 25.8582ZM23.0582 20.8882C22.9872 20.945 22.9162 21.0018 22.8452 21.0586C22.76 21.1154 22.6748 21.158 22.5896 21.1864C22.5044 21.229 22.4192 21.2574 22.334 21.2716C22.2346 21.2858 22.1352 21.3 22.05 21.3C21.6808 21.3 21.3116 21.1438 21.0418 20.8882C20.7862 20.6184 20.63 20.2492 20.63 19.88C20.63 19.5108 20.7862 19.1416 21.0418 18.8718C21.1838 18.744 21.3258 18.6446 21.5104 18.5736C21.766 18.46 22.05 18.4316 22.334 18.4884C22.4192 18.5026 22.5044 18.531 22.5896 18.5736C22.6748 18.602 22.76 18.6446 22.8452 18.7014C22.9162 18.7582 22.9872 18.815 23.0582 18.8718C23.3138 19.1416 23.47 19.5108 23.47 19.88C23.47 20.2492 23.3138 20.6184 23.0582 20.8882Z" fill="white" fill-opacity="0.87"/>
</svg>
